# xmcd
#
# Track frame offsets:
# 150
# 8633
# 19624
# 35646
# 54089
# 74082
# 93744
# 110040
# 128658
# 150005
# 168711
# 187133
# 204656
# 221585
# 238920
# 259146
# 280434
# 301015
# 324266
#
# Disc length: 4638 seconds
#
# Revision: 0
# Processed by: cddbd v1.5.1PL0 Copyright (c) Steve Scherf et al.
# Submitted via: Audion 3.0.2 (http://www.panic.com/audion/)
#
DISCID=0f121c13
DTITLE=Snoop Dogg, Bone Thugs N Harmony - Doggy Style, Bone Thugs N Harmony Songs
DYEAR=1900
DGENRE=
TTITLE0=snoop dogg
TTITLE1=snoop dogg
TTITLE2=snoop dogg
TTITLE3=snoop dogg
TTITLE4=snoop dogg
TTITLE5=snoop dogg
TTITLE6=snoop dogg
TTITLE7=snoop dogg
TTITLE8=snoop dogg
TTITLE9=snoop dogg
TTITLE10=snoop dogg
TTITLE11=snoop dogg
TTITLE12=snoop dogg
TTITLE13=Crossroads
TTITLE14=Look Into My Eyes
TTITLE15=Thuggish Ruggish Bone
TTITLE16=Foe The Love Of Money
TTITLE17=Thug Love Ft. 2Pac
TTITLE18=First Of Da Month
EXTD=
EXTT0=
EXTT1=
EXTT2=
EXTT3=
EXTT4=
EXTT5=
EXTT6=
EXTT7=
EXTT8=
EXTT9=
EXTT10=
EXTT11=
EXTT12=
EXTT13=
EXTT14=
EXTT15=
EXTT16=
EXTT17=
EXTT18=
PLAYORDER=
